<?xml version="1.0" encoding="utf-8"?>
<!-- Generator: Adobe Illustrator 16.0.0, SVG Export Plug-In . SVG Version: 6.00 Build 0)  -->
<!DOCTYPE svg PUBLIC "-//W3C//DTD SVG 1.1//EN" "http://www.w3.org/Graphics/SVG/1.1/DTD/svg11.dtd">
<svg version="1.1" id="Layer_1" xmlns="http://www.w3.org/2000/svg" xmlns:xlink="http://www.w3.org/1999/xlink" x="0px" y="0px"
	 width="627.762px" height="193.223px" viewBox="0 0 627.762 193.223" enable-background="new 0 0 627.762 193.223"
	 xml:space="preserve">
<g>
	<g>
		<g>
			<path fill-rule="evenodd" clip-rule="evenodd" d="M139.403,12.062c0.647-2.019,1.475-4.013,2.303-6.014
				c0.216-0.731,0.428-1.465,0.612-2.195c0.285-1.112,0.483-2.362-0.188-3.195c-0.358-0.444-0.895-0.679-1.508-0.657
				c-0.491,0.017-1.033,0.194-1.708,0.552c-0.979,0.52-1.926,1.265-2.889,2.044c-0.521,0.42-1.058,1.288-1.194,1.935
				c-0.248,1.158-0.45,2.312-0.645,3.427c-0.091,0.521-0.183,1.043-0.278,1.566c-0.366,1.995-0.622,2.831-0.868,3.642
				c-0.27,0.888-0.549,1.807-0.932,4.031c-0.357,2.076-0.636,4.221-0.85,6.562c-0.075,0.822,0.224,1.437,0.384,1.765l0.187,0.571
				l0.479,0.239c0.519,0.261,1.071,0.382,1.644,0.361c0.865-0.03,1.691-0.403,2.361-0.991
				C137.034,21.07,138.004,16.429,139.403,12.062z"/>
			<path fill-rule="evenodd" clip-rule="evenodd" d="M57.994,28.622c-2.369-3.455-4.426-7.079-6.49-10.721
				c-0.749-1.318-1.495-2.82-2.311-4.308c-0.548-0.107-1.145-0.016-1.779,0.277c-0.923,0.429-1.66,1.341-2.073,2.567
				c-0.566,1.683-0.438,3.637,0.339,5.099c1.085,2.047,1.467,2.531,1.924,3.034c0.266,0.292,0.566,0.624,1.592,2.507
				c1.227,2.251,2.435,4.512,3.643,6.773l1.629,3.042l0.154,0.226c1.244,1.434,3.32,2.432,4.939,2.375
				c1.124-0.04,1.77-0.541,2.106-0.95c0.365-0.436,0.545-1.077,0.581-1.735C60.766,33.864,59.482,30.789,57.994,28.622z"/>
			<path fill-rule="evenodd" clip-rule="evenodd" d="M98.585,24.798c-0.37-2.062-0.559-3.349-0.713-4.464
				c-0.65-2.96-1.378-5.903-2.103-8.835c-0.639-2.587-1.297-5.175-1.99-7.751l-2.988-1.777c-0.705,0.251-1.389,0.527-2.045,0.865
				c-0.031,0.061-0.058,0.122-0.091,0.183c-0.295,0.552-0.662,1.238-0.606,2.065c0.092,1.406,0.387,2.8,0.669,4.147l0.131,0.621
				c0.716,3.457,1.214,5.618,1.694,7.71c0.519,2.255,1.008,4.384,1.749,8.005c0.19,0.936,0.636,3.126,2.893,3.047
				c0.087-0.003,0.18-0.01,0.274-0.021c0.729-0.088,1.948-0.232,2.683-1.223C98.623,26.72,98.772,25.854,98.585,24.798z"/>
			<path fill-rule="evenodd" clip-rule="evenodd" d="M28.027,52.476c-0.049-0.049-0.097-0.096-0.146-0.144l0.199-0.225
				c-0.054-0.045-0.11-0.092-0.165-0.138c-2.924-2.427-5.643-4.925-8.293-7.632c-1.874-1.913-3.755-3.819-5.632-5.73
				c-0.149-0.018-0.298-0.038-0.461-0.032c-0.979,0.034-2.134,0.501-2.81,1.134c-0.968,0.906-0.896,2.911-0.422,3.895
				c0.909,1.875,1.875,3.325,2.957,4.436l2.366,2.425c3.298,3.38,4.802,4.922,9.194,9.32c0.742,0.743,1.903,1.62,3.222,1.574
				c0.618-0.021,1.504-0.258,2.213-1.26c0.955-1.345,0.563-3.699-0.003-4.867C29.715,54.132,28.856,53.29,28.027,52.476z"/>
		</g>
		<g>
			<path d="M155.087,166.337l0.2,0.028l17.353,2.534l0.026,0.149c0.985,5.698,1.893,16.661,2.17,22.385
				c0.111,1.319,1.335,1.789,2.44,1.789c0.947,0,1.878-0.33,2.37-0.846c0.265-0.275,0.39-0.586,0.37-0.92l-5.605-93.707
				c-0.307-4.623-1.819-7.383-4.049-7.383c-2.409,0-5.035,3.19-6.108,7.421c-3.159,12.472-5.618,24.057-19.491,90.558
				c0.004,0.699,0.309,1.439,0.84,1.989c0.527,0.547,1.236,0.862,1.942,0.862c1.107,0,2.145-0.74,2.923-2.089L155.087,166.337z
				 M172.67,163.298l-0.243-0.034l-16.153-2.293l0.048-0.221l12.809-57.344l0.098,1.476c0.51,7.632,2.81,43.692,3.188,51.381
				c0.123,0.861,0.254,5.732,0.254,6.794V163.298z"/>
		</g>
		<path d="M205.652,186.761c0,0.094-0.096,0.191-0.096,0.291c-0.581,2.222-0.871,3.865-3.386,4.156
			c-1.354,0.1-1.548,0.1-2.418-1.062l-1.256-6.384c-2.71-17.603-5.031-34.914-8.221-52.422c-0.775-3.965-1.742-8.22-3.192-12.087
			c-0.097-0.388-0.097-0.485-0.097-0.485c0-2.804,5.707-3.191,6.189-0.772c2.804,12.959,5.415,30.853,7.737,44.102l1.838,10.639
			c2.03-7.447,2.61-15.281,3.579-22.34c0.193-1.548,1.547-2.611,3.191-2.808c1.063-0.096,2.126-0.096,2.804,0.968l10.736,26.695
			c0.482-17.021,2.418-45.651,3.481-60.737c1.063-2.516,5.318-2.806,5.706,0.386c0.29,3.096-0.967,9.575-1.159,12.669
			c-1.646,20.506-1.839,40.815-2.709,61.223c-1.065,1.161-0.677,2.031-2.611,2.225h-0.678c-2.514,0-2.417-2.032-3.288-4.354
			l-11.51-29.595C209.135,170.317,206.815,177.767,205.652,186.761z"/>
		<path d="M242.02,119.735c0-1.74,1.646-3.386,3.386-3.386h15.28c0.581,0,2.516,1.452,2.611,1.934
			c0.098,0.196,0.098,0.29,0.098,0.484c0,1.935-2.611,2.805-4.158,2.805h-11.607l0.483,32.11l10.446-1.549h0.483
			c4.545,0,2.806,4.451-1.064,5.031l-9.671,1.45l-0.291,25.243c0.871,0.096,4.159,0.096,5.029,0.096
			c6.479,0,11.221-2.222,11.51,2.226c0.194,3.289-21.471,2.902-21.471,1.064L242.02,119.735z"/>
		<path d="M274.907,171.77c3.868,1.161,0.193,9.673,5.028,12.476h0.581c5.415,0,6.964-7.447,6.964-11.412
			c0-5.318-0.388-11.027-2.612-16.057c-4.547-10.444-14.314-19.149-14.314-31.143c0-5.415,3.291-14.409,9.963-14.409
			c4.254,0,11.314,3.384,11.314,8.412c0,1.839-0.58,2.902-2.514,2.902c-3.771,0-2.61-5.803-7.93-5.803
			c-4.933,0-5.32,6.866-5.32,10.253c0,9.769,8.221,16.634,12.572,24.76c3.966,7.446,5.997,18.277,3.676,25.629
			c-1.547,5.03-5.897,11.896-11.799,11.896c-7.157,0-9.383-8.896-9.383-14.7C271.134,172.931,273.359,171.286,274.907,171.77z"/>
		<path d="M317.271,112.192c17.312,1.933,14.797,43.135,13.83,55.997c-0.677,7.062-4.256,19.345-13.928,19.345
			c-17.118,0-17.892-29.211-17.892-40.523C299.282,134.727,300.152,112.192,317.271,112.192z M304.795,146.622
			c0,28.339,5.223,36.074,12.091,36.074c9.479,0,9.573-24.565,9.573-30.657v-0.388c0-7.448-2.031-34.527-11.218-34.527
			c-7.255,0-10.35,16.151-10.35,20.987C304.795,141.204,304.795,143.913,304.795,146.622z"/>
		<path d="M373.08,128.633l-10.446,25.728c-0.192,1.934-4.738,2.127-5.514,1.258c-0.096-0.099-0.578-0.871-0.676-1.161
			c-2.516-8.125-4.74-16.153-7.93-24.083c-1.646,18.182,0.386,36.75-1.936,54.839c-1.064,0.676-1.838,0.676-2.997,0.676
			c-2.032,0-1.937-0.482-1.937-2.319c0-3.096,0.873-5.128,0.678-66.156c0-2.899,4.449-5.125,5.61-1.934l11.8,32.305
			c2.805-3.192,11.219-30.371,13.347-33.949c0.965-1.934,3.095-1.643,5.515,0c0.094,0,0.577,31.916,0.676,45.554
			c0.095,8.607,0.578,17.602,0.578,26.308c0,1.74-1.16,3.287-2.998,3.287c-1.547,0-1.933-0.385-2.515-1.932
			C374.628,167.515,374.045,148.074,373.08,128.633z"/>
		<path d="M389.522,119.735c0-1.74,1.644-3.386,3.387-3.386h15.279c0.581,0,2.515,1.452,2.612,1.934
			c0.095,0.196,0.095,0.29,0.095,0.484c0,1.935-2.61,2.805-4.157,2.805h-11.606l0.483,32.11l10.446-1.549h0.483
			c4.546,0,2.805,4.451-1.063,5.031l-9.671,1.45l-0.291,25.243c0.869,0.096,4.157,0.096,5.028,0.096
			c6.479,0,11.22-2.222,11.51,2.226c0.191,3.289-21.471,2.902-21.471,1.064L389.522,119.735z"/>
		<g>
			<path d="M484.928,186.048c0.669,0.788,1.773,1.6,2.577,1.6c1.854,0,3.118-1.452,3.695-2.83l0.121-6.041
				c0.278-12.675,0.331-25.588,0.383-38.077c0.064-15.229,0.131-30.974,0.602-46.429c-1.555-1.22-2.369-1.648-3.953-1.765
				c-1.646,0.001-2.585,0.601-3.333,2.138c-2.835,7.886-5.691,13.654-10.639,22.852l-0.628,1.027
				c-1.775,3.282-6.7,13.672-7.697,14.55l-0.222,0.194l-0.167-0.244c-6.538-9.555-10.304-24.836-12.533-34.432
				c-0.271-1.158-0.523-2.246-0.764-3.245c-0.521-2.229-2.142-3.003-3.214-3.514c-0.407-0.194-0.729-0.349-0.923-0.545
				c-0.02-0.02-0.083-0.048-0.306-0.048c-1.266,0-4.29,3.399-5.054,34.886l-1.357,57.788c0.504,0.766,2.52,1.579,3.195,1.579
				c0.942,0,2.432-1.766,2.663-3.076v-0.327c0.249-23.384,0.18-47.679,2.887-70.542l0.029-0.237h0.234
				c0.242,0,0.242,1.001,2.665,6.681c1.783,4.184,4.914,11.523,10.438,24.391c0.512,1.189,1.168,1.793,1.947,1.793
				c1.418,0,3.013-1.967,3.508-3.066c1.057-2.41,6.175-12.933,7.309-14.875c1.768-3.886,4.195-8.145,6.541-12.264
				c1.091-1.916,2.123-4.726,3.061-6.453l0.54-0.99l-0.043,1.133c-0.563,14.942-0.797,31.54-1.024,46.625
				c-0.121,8.04-0.247,16.356-0.419,24.379L484.928,186.048z"/>
		</g>
		<path d="M508.996,169.254l-0.579,0.579l-1.644,10.93c-0.195,1.451-0.098,5.609-2.902,5.609c-1.258,0-2.126-2.514-2.126-3.48
			c10.057-70.121,10.153-70.313,10.153-70.313c0.483-1.838,1.159-4.545,3.578-4.545c1.063,0,2.418,0.483,2.998,1.449l0.775,2.033
			c5.609,22.146,8.22,44.877,10.829,67.699l0.581,6.287c0,0.097-0.096,0.097-0.096,0.194c-0.677,1.838-1.062,2.61-2.902,2.61h-0.288
			c-0.581,0-1.549,0-1.646-0.676l-2.417-18.377H508.996z M510.448,163.258l12.09,0.291l-6.482-45.168L510.448,163.258z"/>
		<path d="M540.334,166.45c0-7.738,0.483-43.911,0.675-51.648c0.486-1.354,2.904-1.158,4.064-1.158
			c10.06,0,17.311,8.896,17.311,18.568c0,10.444-7.156,22.148-16.731,26.597c-0.098,1.548-0.482,9.092-0.482,10.64
			c-0.097,3.287-0.097,18.183,0,21.374c-0.581,0.967-2.031,1.258-2.999,1.258c-0.871,0-1.062-0.099-1.837-0.58V166.45z
			 M545.461,152.329c0.677,0,1.546-0.195,2.03-0.678c5.607-5.125,8.898-11.025,8.898-18.761c0-5.03-3.58-14.123-10.252-14.123
			L545.461,152.329z"/>
		<path d="M574.184,171.77c3.871,1.161,0.193,9.673,5.03,12.476h0.579c5.418,0,6.965-7.447,6.965-11.412
			c0-5.318-0.387-11.027-2.611-16.057c-4.545-10.444-14.315-19.149-14.315-31.143c0-5.415,3.29-14.409,9.962-14.409
			c4.256,0,11.317,3.384,11.317,8.412c0,1.839-0.58,2.902-2.516,2.902c-3.771,0-2.611-5.803-7.929-5.803
			c-4.935,0-5.321,6.866-5.321,10.253c0,9.769,8.222,16.634,12.574,24.76c3.966,7.446,5.995,18.277,3.674,25.629
			c-1.547,5.03-5.898,11.896-11.8,11.896c-7.155,0-9.381-8.896-9.381-14.7C570.412,172.931,572.638,171.286,574.184,171.77z"/>
		<path d="M168.029,62.083l-0.102-0.548l-0.479-0.288c-10.067-6.043-18.574-10.747-30.53-13.147
			c-4.057-0.813-8.187-1.416-12.275-1.787c-4.76-0.432-9.56-0.568-14.268-0.403c-12.188,0.428-23.844,2.828-34.585,7.109
			c-3.063,1.051-6.116,2.275-9.08,3.637c-14.366,6.604-26.985,16.496-37.507,29.403c-2.991,3.666-5.812,7.603-8.408,11.729
			c-3.074,5.231-5.859,10.667-8.279,16.155c-0.637,1.44-1.245,2.886-1.804,4.294c-0.555,1.391-1.085,2.794-1.614,4.198l-0.056,0.144
			c-0.526,1.397-1.037,2.848-1.559,4.431c-5.078,15.414-9.792,33.441-6.253,50.288c0.155,0.737,0.314,1.481,0.469,2.158
			c0.579,3.56,3.022,6.369,4.812,8.174l2.104,2.123l0.014-2.989c0.009-1.669-0.294-3.301-0.587-4.878
			c-0.347-1.882-0.676-3.66-0.46-5.334l0.014-0.114L7.59,176.32c-0.043-0.743-0.084-1.487-0.122-2.232
			c-0.039-0.769-0.074-1.538-0.104-2.312c-0.033-0.766-0.06-1.531-0.081-2.291c-0.035-1.556-0.046-3.334-0.058-5.122
			c-0.008-1.414-0.018-2.836-0.039-4.122c0.012-0.769,0.027-1.538,0.048-2.305c0.072-2.654,0.207-5.247,0.399-7.705
			c0.05-0.639,0.103-1.276,0.164-1.912l0.006-0.111c0.014-3.217,2.841-11.226,4.199-15.074c0.504-1.426,0.742-2.102,0.831-2.452
			c0.484-1.345,1.034-2.697,1.567-4.008c1.113-2.74,2.264-5.571,2.892-8.438c0.316-1.096,0.769-2.218,1.425-3.53
			c1.125-2.245,2.365-4.432,3.706-6.536c-0.25,0.538-0.492,1.089-0.634,1.646c-0.393,1.354-0.505,2.663-0.563,3.763
			c-0.031,0.599-0.047,1.195-0.043,1.794v0.105l0.02,0.104c0.272,1.529,0.372,3.084,0.297,4.631
			c-0.021,0.514-0.064,1.028-0.129,1.562c-0.123,1.187,1.62,4.404,1.183,5.83c-0.188,0.613-0.388,1.218-0.602,1.816
			c-0.307,0.662-0.594,1.352-0.854,2.056c-0.146,0.395-0.284,0.797-0.427,1.206l-0.305,0.867c-2.646,5.545-5.812,13.824-3.02,21.923
			c0.294,0.854,0.654,1.695,1.066,2.504l0.132,0.206c2.676,3.385,4.576,6.051,6.161,8.644c0.326,0.539,0.646,1.081,0.956,1.627
			c1.516,8.895,6.133,15.309,13.36,18.556l0.214,0.096l0.234,0.012c0.53,0.026,1.035,0.075,1.528,0.137
			c-0.037-0.331-0.04-0.678-0.013-1.04c-0.131-0.19-0.27-0.376-0.394-0.574c-0.199-0.317-0.286-0.646-0.298-0.961
			c-1.403-1.31-2.678-2.756-3.66-4.581c-1.911-3.548-3.609-7.462-3.847-11.525c-0.304-0.969-0.592-1.991-0.861-3.071l-0.049-0.194
			l-0.107-0.17c-0.436-0.686-0.845-1.325-1.249-1.946c-1.872-2.964-3.948-6.003-6.171-9.032c-0.308-0.69-0.572-1.414-0.788-2.155
			c-1.595-5.502-0.333-11.58,3.75-18.062l0.098-0.188c0.268-0.65,0.541-1.292,0.813-1.921c0.282-0.639,0.563-1.27,0.842-1.894
			l0.094-0.321c0.126-0.833,0.155-1.641,0.169-2.389c0.031-1.555,0.016-3.149-0.002-4.449c0.029-0.67,0.043-1.341,0.036-2.021
			c-0.019-1.345-2.136-4.678-2.346-5.96c0.1-0.536,0.213-1.068,0.331-1.604c0.268-1.231,0.55-2.474,0.85-3.742
			c1.905-8.398,6.131-16.729,12.234-24.117c2.641-3.358,5.605-6.544,8.817-9.471c6.415-5.853,13.637-10.593,21.497-14.099
			c3.321-1.586,6.791-3.02,10.271-4.245l1.285-0.402c8.307-2.608,17.72-5.565,26.626-5.878c3.287-0.116,6.253,0.123,9.063,0.732
			c2.685,0.578,5.224,1.515,7.545,2.782c0.559,0.305,1.111,0.634,1.645,0.978c0.687,0.786,1.618,1.645,2.914,2.686
			c0.126,0.103,0.401,0.515,0.583,0.788c0.333,0.501,0.678,1.017,1.109,1.381c1.144,1.251,2.773,2.178,4.35,3.075
			c3.352,1.908,4.86,3.036,4.247,5.054c-0.548,1.444-2.279,2.061-4.285,2.772c-2.343,0.834-4.999,1.776-6.225,4.347
			c-0.305,0.54-0.591,1.109-0.873,1.737c-0.675,1.497-1.271,3.21-1.868,5.371c-0.285,0.299-0.587,0.555-0.898,0.763
			c-0.808,0.538-1.627,0.749-2.675,0.652c-3.009-0.265-3.945-3.074-5.13-7.67c-0.503-1.955-1.023-3.976-1.888-5.69
			c-0.168-0.429-0.343-0.842-0.523-1.229c-0.195-0.422-0.402-0.818-0.587-1.129c-0.538-1.035-1.096-2.014-1.659-2.907
			c-1.955-3.102-4.084-5.394-6.416-6.904c-2.395-0.891-4.857-1.362-6.914-1.056c-5.089,0.757-8.569,3.542-8.351,8.197
			c0.05,0.339,0.105,0.68,0.169,1.024c0.483,1.343,1.07,2.631,1.479,3.693c0.212,0.549,0.156,1.047-0.064,1.452
			c-0.07,0.883-0.764,1.113-1.614,1.043c-0.386,0.052-0.787,0.008-1.152-0.156c-0.717-0.322-1.682-0.44-2.651-0.583l-1.515,0.712
			c-2.899,1.36-4.07,4.089-5.205,6.729c-0.666,1.551-1.298,3.019-2.246,4.158c-1.318,1.159-3.272,2.325-5.341,3.562
			c-2.137,1.277-4.348,2.599-6.187,4.1c-1.494,1.215-6.038,4.919-3.344,10.412c0.412,0.834,0.977,1.686,1.73,2.587
			c4.174,4.435,11.44,9.529,18.185,9.293c1.842-0.065,3.571-0.519,5.16-1.357c3.596-1.974,2.979-5.82,2.435-9.213l-0.114-0.719
			l-0.027-0.126c-0.063-0.245-0.13-0.49-0.203-0.732c-0.383-1.284-0.743-2.517-0.778-3.711c-0.309-0.898-0.352-1.821,0.199-2.699
			c0.011-0.018,0.023-0.031,0.034-0.049c0.052-0.265,0.13-0.503,0.244-0.715c0.134-0.247,0.294-0.414,0.483-0.521
			c0.199-0.17,0.448-0.294,0.739-0.362c1.051-0.766,2.33-1.049,3.854-0.776c4.62,0.826,8.708,3.063,11.411,6.852
			c0.019,0.021,0.034,0.043,0.053,0.063c1.285,1.042,2.475,2.454,3.562,4.257l0.144,0.192c0.593,0.651,1.236,1.326,1.897,2.017
			l0.34,0.354c3.598,3.741,7.675,7.981,6.745,11.258c-0.151,0.532-0.428,1.033-0.845,1.53c-0.468,0.556-1.119,1.098-1.99,1.647
			c-2.043,1.445-4.814,2.729-7.748,4.086c-6.979,3.234-14.891,6.897-16.503,14.427l-0.782,2.523
			c-0.741,2.395-1.569,4.916-2.793,7.042c-0.296,0.457-0.626,0.873-1.008,1.266c-1.289,0.764-2.845,1.156-4.489,1.569
			c-2.32,0.585-4.719,1.188-6.605,2.929c-0.75,0.698-1.332,1.506-1.812,2.54c-0.928,2.375-1.041,5.872-1.132,8.688
			c-1.095-2.379-2.454-5.313-4.162-7.117c-0.713-0.748-1.43-1.37-2.192-1.897c-0.824-0.576-1.705-1.039-2.64-1.385
			c-0.771-0.267-1.56-0.477-2.338-0.626c-0.813-0.156-1.634-0.251-2.501-0.281c-3.188,0.047-6.312,0.858-9.061,2.359
			c-2.832,1.542-5.233,3.78-6.948,6.474c-0.513,0.811-0.97,1.671-1.385,2.629c-1.636,4.522-1.072,8.708,1.522,11.458
			c0.621,0.698,1.205,1.243,1.87,1.733c1.091,0.753,2.299,2.552,3.592,3.647c0.897,0.843,1.774,1.356,4.845,3.993
			c3.587,3.078,10.489,0.852,13.289-0.509c2.801-1.358-2.146-2.04-6.655-1.841c-4.51,0.198-3.81-0.689-5.842-1.748
			c-1.98-1.973-3.812-4.742-3.812-4.742c-0.024-0.019-0.049-0.031-0.074-0.051c-1.606-1.218-2.522-6.206-2.104-8.084
			c0.085-0.598,0.238-1.226,0.458-1.869c0.612-1.814,1.746-3.77,2.979-5.167c1.078-1.07,2.837-1.888,4.538-2.681
			c0.349-0.161,0.691-0.321,1.021-0.48c1.403-0.26,2.654-0.148,3.881,0.344c0.58,0.232,1.12,0.544,1.667,0.968
			c0.543,0.408,1.077,0.933,1.634,1.604l0.07,0.078c1.041,1.057,1.806,2.689,2.545,4.27c1.319,2.819,2.816,6.015,6.253,5.894
			c0.125-0.004,0.252-0.015,0.35-0.024c4.686-0.369,5.489-4.601,6.199-8.334c0.367-1.936,0.748-3.933,1.612-5.397
			c0.575-0.244,1.147-0.479,1.715-0.71l0.873-0.354c3.163-1.279,6.15-2.486,8.369-4.368c0.535-0.452,0.991-0.917,1.395-1.419
			l0.188-0.23l0.062-0.291c0.59-2.8,1.141-5.314,1.889-7.727c0.292-0.923,0.546-1.623,0.82-2.258
			c3.188-4.789,9.766-8.617,15.575-11.998c2.18-1.268,4.241-2.468,5.986-3.64c0.583-0.21,1.173-0.412,1.77-0.603l0.271-0.124
			c1.843-1.135,3.218-2.278,4.2-3.495c2.533-3.128,2.515-6.731-0.041-10.69c-1.381-2.231-3.559-3.865-5.664-5.446
			c-1.917-1.438-3.898-2.925-5.147-4.761c-0.398-0.655-0.74-1.333-1.019-2.009c-0.146-0.482-0.247-1.026-0.354-1.6
			c-0.227-1.221-0.483-2.604-1.293-3.827c-0.86-1.215-2.033-1.931-3.558-2.172c-4.03-2.45-13.428-4.412-14.308-4.492
			c-3.74-0.824-7.995,0.544-8.919,4.72c-0.393,1.773-0.5,3.578-0.604,5.384c0.031,0.127,0.056,0.245,0.087,0.374l0.141,0.562
			c0.706,2.805,1.674,6.643-0.052,8.312l-0.171,0.164l-0.097,0.217c-0.102,0.226-0.272,0.415-0.529,0.578l-0.177,0.092l-0.14,0.144
			c-0.277,0.286-0.604,0.47-1.001,0.559c-1.23,0.281-3.44-0.725-4.396-1.596l-0.171-0.257l-0.272-0.148
			c-0.311-0.166-0.602-0.354-0.834-0.527c-0.807-0.652-1.753-1.291-2.668-1.909c-1.843-1.245-3.746-2.533-4.546-3.897
			c-0.021-0.311-0.068-0.603-0.112-0.867c-0.091-0.572-0.14-0.92-0.016-1.204c2.424-3.807,5.853-6.185,9.445-8.481l0.117-0.086
			c2.185-1.784,4.288-3.562,6.033-5.675l0.174-0.277c0.216-0.477,0.427-0.958,0.625-1.451c0.287-0.722,0.646-1.563,1.132-2.323
			l0.253-0.394l-0.003-0.027c0.142-0.361,1.331-2.953,5.675-1.465c4.313,1.476,6.14-0.51,4.763-5.104
			c-0.707-2.354-1.513-3.458-2.016-4.515l-0.001-0.052c-0.007-0.418,0.029-0.896,0.062-1.363c0.027-0.39,0.054-0.772,0.062-1.117
			c0.499-1.635,1.396-1.888,2.215-1.916c1.68-0.06,3.969,0.995,5.807,1.843c0.445,0.206,0.87,0.4,1.198,0.54
			c1.627,0.824,2.502,2.593,3.403,4.411l0.124,0.286c0.608,1.412,1.301,3.013,2.102,4.723c0.29,0.618,0.597,1.244,0.912,1.873
			c2.338,4.709,6.692,13.474,13.264,13.242c1.715-0.06,3.453-0.735,5.112-1.97c0.627-0.415,1.146-0.957,1.545-1.613
			c0.241-0.397,0.296-0.883,0.447-2.506c0.134-1.41,0.378-4.037,0.816-4.752c0.222-0.363,0.328-0.778,0.422-1.147
			c0.023-0.088,0.052-0.2,0.08-0.302c0.446-0.075,0.91-0.148,1.387-0.225c4.143-0.659,9.297-1.479,11.176-4.924
			c1.019-1.866,0.914-4.229-0.335-7.067c-1.709-3.46-4.696-5.501-7.585-7.475c-0.732-0.501-1.463-0.998-2.108-1.474
			c-0.403-0.336-0.797-0.67-1.182-1.001c-0.382-0.333-0.758-0.664-1.074-0.943c-0.314-0.317-0.481-0.769-0.613-1.206
			c6.323,0.826,12.922,3.189,18.805,5.294l0.797,0.286c4.35,1.554,4.377,1.662,9.226,4.163c0.882,0.454,1.72,0.886,2.491,1.28
			l0.288,0.148l0.321-0.014c0.727-0.027,1.283-0.277,1.657-0.743C168.245,63.746,168.173,62.86,168.029,62.083z"/>
	</g>
	<g>
		<path d="M610.891,98.575c-1.601-0.118-3.135-0.132-4.619-0.145c-0.749-0.006-1.497-0.013-2.283-0.033l-0.166,0.022
			c-1.362,0.335-1.523,1.132-1.529,1.46c-0.011,0.683,0.548,1.277,1.422,1.514l1.735,0.078c0.021,1.506,0.04,5.148,0.04,7.188
			c0,1.491-0.06,5.027-0.104,7.608l-0.038,2.627l0.019,0.125c0.216,0.863,1.005,1.314,1.674,1.314c0.678,0,1.23-0.432,1.407-1.1
			l0.025-0.571c0-0.716,0.031-1.658,0.062-2.569c0.028-0.854,0.055-1.679,0.055-2.246l0.078-5.446
			c0.037-2.604,0.078-5.487,0.104-6.803l2.442,0.045c0.746,0,1.335-0.578,1.369-1.346C612.618,99.52,612.051,98.679,610.891,98.575z
			"/>
		<path d="M627.457,99.368c-0.476-0.366-0.809-0.548-1.445-0.592c-0.704,0-1.203,0.315-1.547,1.014
			c-0.655,1.772-1.312,3.063-2.434,5.098l-0.166,0.266c-0.422,0.76-0.867,1.533-1.211,2.106c-1.077-2.014-1.706-4.65-2.138-6.461
			l-0.181-0.75c-0.216-0.893-0.908-1.214-1.197-1.349l-0.01,0.017c-0.162-0.153-0.373-0.23-0.628-0.23c-0.938,0-1.799,0.672-2,8.788
			l-0.322,13.329l0.031,0.199l0.069,0.122c0.293,0.516,1.11,0.786,1.466,0.786c0.639,0,1.23-0.514,1.349-1.171l0.013-0.221
			c0.048-4.334,0.098-8.797,0.479-13.166c0.427,0.944,1.025,2.286,1.865,4.192c0.344,0.78,0.9,0.896,1.202,0.896
			c0.745-0.001,1.354-0.724,1.563-1.181c0.246-0.546,1.429-2.915,1.712-3.394c0.162-0.348,0.331-0.691,0.502-1.028
			c-0.022,1.964-0.008,3.917,0.006,5.718c0.017,2.282,0.034,4.643-0.018,6.962l-0.031,1.81l0.058,0.258l0.119,0.143
			c0.095,0.113,0.598,0.676,1.244,0.676c0.84,0,1.389-0.598,1.622-1.158l0.088-1.668c0.064-2.891,0.078-5.833,0.091-8.751
			c0.015-3.483,0.029-7.086,0.142-10.642l0.012-0.384L627.457,99.368z"/>
	</g>
</g>
</svg>
